Coordinates
version=1
nRows=14
nColumns=24
inDegrees=yes

Units are S.I. units (second, meters, Newtons, ...)
Angles are in degrees.

endheader
time	pelvis_tilt	pelvis_list	pelvis_rotation	pelvis_tx	pelvis_ty	pelvis_tz	hip_flexion_r	hip_adduction_r	hip_rotation_r	knee_angle_r	ankle_angle_r	subtalar_angle_r	mtp_angle_r	hip_flexion_l	hip_adduction_l	hip_rotation_l	knee_angle_l	ankle_angle_l	subtalar_angle_l	mtp_angle_l	lumbar_extension	lumbar_bending	lumbar_rotation
      4.03500000	    -16.52807273	     -3.65810160	      5.34702228	     -2.05747424	     -0.04133186	     -0.33260723	     44.47997942	     -0.24961979	    -16.54271012	    -15.05876547	      0.33085356	     -0.97790968	     17.84874608	      0.73695410	     -2.64048373	     -3.18043549	    -17.07312023	     12.71759142	      7.43219609	      4.71970681	     21.05827232	      0.23364956	    -21.06873346
      4.04000000	    -16.58626785	     -3.86161072	      5.38603261	     -2.05010067	     -0.04247200	     -0.33206539	     44.67355209	     -0.13725212	    -16.65017458	    -15.87728181	     -0.32341691	     -1.83314154	     17.84696665	      0.62823178	     -2.99454091	     -3.06576303	    -17.65655024	     12.44425295	      7.62629241	      4.80559548	     21.25219910	      0.41626189	    -21.10222858
      4.04500000	    -16.62531108	     -4.09123953	      5.36820696	     -2.04266254	     -0.04356487	     -0.33141812	     44.85907708	      0.05380815	    -16.67627867	    -16.74473995	     -1.10392361	     -2.89198826	     17.86657593	      0.51002917	     -3.39241065	     -3.05247143	    -18.27038484	     12.13953820	      7.89015012	      4.91253196	     21.43331820	      0.64261703	    -21.09516859
      4.05000000	    -16.65785305	     -4.32829921	      5.31150854	     -2.03519195	     -0.04461675	     -0.33071348	     45.05908769	      0.28608109	    -16.63394984	    -17.67541700	     -1.95560277	     -4.07668327	     17.87777602	      0.39582078	     -3.80257415	     -3.08126203	    -18.90931267	     11.77581997	      8.15055190	      5.03217425	     21.60604622	      0.89408212	    -21.05738872
      4.05500000	    -16.68851418	     -4.56766215	      5.20901316	     -2.02775526	     -0.04563115	     -0.32993645	     45.28023204	      0.56614056	    -16.46383436	    -18.65597731	     -2.85252720	     -5.36703708	     17.86035127	      0.31738370	     -4.22309396	     -3.20157246	    -19.61829705	     11.35767928	      8.41890009	      5.20019274	     21.76534844	      1.16492490	    -20.97622110
      4.06000000	    -16.73572455	     -4.79982809	      5.04441374	     -2.02019375	     -0.04661715	     -0.32906254	     45.54036331	      0.89656227	    -16.20259018	    -19.70323739	     -3.71356542	     -6.73726503	     17.74134316	      0.23512896	     -4.64362559	     -3.40022802	    -20.30406297	     10.83996338	      8.72937889	      5.44698890	     21.95805067	      1.44765365	    -20.85908859
      4.06500000	    -16.76581283	     -5.08737198	      4.96378673	     -2.01268398	     -0.04749341	     -0.32834381	     45.78144959	      1.21936346	    -15.96710705	    -20.77057714	     -4.52098455	     -8.10059674	     17.49682926	      0.19236752	     -5.09702219	     -3.36286785	    -21.05074730	     10.25060577	      8.85606537	      5.61058282	     22.13145748	      1.76209672	    -20.85203320
      4.07000000	    -16.81035411	     -5.35196916	      4.79285115	     -2.00517019	     -0.04837177	     -0.32744715	     46.05615105	      1.62190128	    -15.51355421	    -21.86915672	     -5.26015063	     -9.53195831	     17.09683931	      0.19425372	     -5.55204154	     -3.54690835	    -21.87067329	      9.59900784	      9.10193807	      5.87233236	     22.30809273	      2.08231855	    -20.75309709
      4.07500000	    -16.87177133	     -5.60128171	      4.50747888	     -1.99749424	     -0.04924704	     -0.32631290	     46.35365488	      2.12138172	    -14.93352045	    -23.01823260	     -5.79311195	    -10.75825371	     16.11751929	      0.21015869	     -6.03924631	     -4.07078192	    -22.70386096	      8.78341969	      9.49269785	      6.56840903	     22.51671648	      2.41318391	    -20.54242359
      4.08000000	    -16.89577854	     -5.89108985	      4.32681155	     -1.98991248	     -0.04998851	     -0.32534999	     46.58850379	      2.60412099	    -14.36240243	    -24.13400898	     -6.23830420	    -11.98531327	     15.09681336	      0.25371428	     -6.54171672	     -4.32733617	    -23.59761248	      7.87869981	      9.65538871	      7.16737998	     22.67597753	      2.75537010	    -20.51807173
      4.08500000	    -16.82542604	     -6.14032720	      4.18619348	     -1.98242537	     -0.05059186	     -0.32434088	     46.74362549	      3.04672926	    -13.86225361	    -25.34916640	     -6.39733541	    -12.85782478	     12.92259117	      0.24009370	     -7.02125113	     -4.54956971	    -24.48879260	      6.75149446	      9.72550054	      8.54156700	     22.71022422	      3.04262856	    -20.46389105
      4.09000000	    -16.81873577	     -6.42278493	      4.03238468	     -1.97486083	     -0.05121127	     -0.32344797	     46.90051854	      3.52076813	    -13.39905416	    -26.38293007	     -6.59165998	    -13.98697305	     12.49160409	      0.35083010	     -7.50683890	     -4.73650834	    -25.53976114	      5.68223192	      9.78266285	      8.72804992	     22.83068938	      3.37743054	    -20.43846492
      4.09500000	    -16.74717295	     -6.69776551	      3.81665741	     -1.96725100	     -0.05175045	     -0.32226728	     46.97778382	      4.08553771	    -12.86072865	    -27.48929931	     -6.43533571	    -14.62021169	     10.17700257	      0.40570028	     -8.06636833	     -5.21935862	    -26.52801493	      4.28175356	      9.84809899	     10.58427370	     22.87153668	      3.70621246	    -20.39097079
      4.10000000	    -16.72851025	     -6.96356572	      3.66491348	     -1.95974907	     -0.05228387	     -0.32127764	     47.05026901	      4.58047079	    -12.43164378	    -28.41171101	     -6.38522428	    -15.60904012	      9.71191843	      0.62329681	     -8.57067730	     -5.49250418	    -27.73505492	      2.97925322	      9.89129273	     10.88312130	     22.96076056	      4.00978942	    -20.39553644
